# xmcd CD database file generated by LOLA_Freedb v0.9beta0
# 
# Track frame offsets:
#      150
#      1927
#      12270
#      14267
#      20407
#      24060
#      34660
#      37487
#      48490
#      52690
#      60955
#      72805
#      77132
#      90787
#      93660
#      111180
#      113047
#      126940
#      129257
#      134172
#      137355
# 
# Disc length: 1990 seconds
# 
# Revision: 4 
# Processed by: cddbd v1.5.2PL0 Copyright (c) Steve Scherf et al.
# Submitted via: LOLA_Freedb v0.9beta0
# 
DISCID=0207c415
DTITLE=Johnny Cash - America
DYEAR=1972
DGENRE=Country
TTITLE0=Johnny Cash - Opening Dialogue
TTITLE1=Paul Revere
TTITLE2=Begin West Movement
TTITLE3=The Road To Kaintuck
TTITLE4=To The Shining Mountains
TTITLE5=The Battle Of New Orleans
TTITLE6=Southwestward
TTITLE7=Remember The Alamo
TTITLE8=Opening The West
TTITLE9=Lorena
TTITLE10=The Gettysburg Address
TTITLE11=The West
TTITLE12=Big Foot
TTITLE13=Like A Young Colt
TTITLE14=Mister Garfield
TTITLE15=A Proud Land
TTITLE16=The Big Battle
TTITLE17=On Wheels And Wings
TTITLE18=Come Take A Trip In My Airship
TTITLE19=Reaching For The Stars
TTITLE20=These Are My People
EXTD=YEAR: 2002 ID3G: 2
EXTT0=
EXTT1=
EXTT2=
EXTT3=
EXTT4=
EXTT5=
EXTT6=
EXTT7=
EXTT8=
EXTT9=
EXTT10=
EXTT11=
EXTT12=
EXTT13=
EXTT14=
EXTT15=
EXTT16=
EXTT17=
EXTT18=
EXTT19=
EXTT20=
PLAYORDER=
